<?xml version="1.0" standalone="no"?>
<!DOCTYPE svg PUBLIC "-//W3C//DTD SVG 20010904//EN"
 "http://www.w3.org/TR/2001/REC-SVG-20010904/DTD/svg10.dtd">
<svg version="1.0" xmlns="http://www.w3.org/2000/svg"
 width="100.000000pt" height="100.000000pt" viewBox="0 0 100.000000 100.000000"
 preserveAspectRatio="xMidYMid meet">

<g transform="translate(0.000000,100.000000) scale(0.100000,-0.100000)"
fill="#ffd49c" stroke="none">
<path d="M816 920 l-63 -60 -344 0 c-255 0 -348 -3 -357 -12 -17 -17 -17 -539
0 -556 8 -8 60 -12 170 -12 l158 0 0 -40 c0 -39 -1 -40 -35 -40 -44 0 -88 -39
-83 -73 l3 -22 235 0 235 0 3 22 c5 34 -39 73 -83 73 -34 0 -35 1 -35 40 l0
40 158 0 c110 0 162 4 170 12 9 9 12 85 12 277 1 218 3 270 15 285 37 49 -3
126 -65 126 -25 0 -45 -13 -94 -60z m122 8 c7 -7 12 -19 12 -27 0 -9 -50 -66
-112 -128 l-112 -113 -28 27 -28 27 112 113 c62 62 120 113 128 113 9 0 21 -5
28 -12z m-313 -198 c-49 -49 -95 -90 -101 -90 -25 0 -63 -61 -70 -110 l-7 -49
-151 -3 c-126 -3 -151 -5 -151 -18 0 -13 29 -15 188 -18 208 -3 258 5 291 46
12 14 83 89 158 167 l138 140 0 -197 0 -198 -420 0 -420 0 0 210 0 210 317 0
318 0 -90 -90z m45 -124 l-30 -31 -27 28 -27 27 29 30 29 30 28 -27 28 -27
-30 -30z m-83 -28 c44 -41 20 -79 -59 -93 -36 -7 -38 -6 -38 19 0 15 7 42 14
61 18 42 48 46 83 13z m333 -238 c0 -20 -7 -20 -420 -20 -413 0 -420 0 -420
20 0 20 7 20 420 20 413 0 420 0 420 -20z m-340 -100 l0 -40 -80 0 -80 0 0 40
0 40 80 0 80 0 0 -40z m105 -90 c4 -7 -60 -10 -185 -10 -125 0 -189 3 -185 10
8 13 362 13 370 0z"/>
</g>
</svg>
