<?xml version="1.0" standalone="no"?>
<!DOCTYPE svg PUBLIC "-//W3C//DTD SVG 20010904//EN"
 "http://www.w3.org/TR/2001/REC-SVG-20010904/DTD/svg10.dtd">
<svg version="1.0" xmlns="http://www.w3.org/2000/svg"
 width="100.000000pt" height="100.000000pt" viewBox="0 0 100.000000 100.000000"
 preserveAspectRatio="xMidYMid meet">

<g transform="translate(0.000000,100.000000) scale(0.100000,-0.100000)"
fill="#ffd49c" stroke="none">
<path d="M80 980 c-19 -19 -20 -33 -20 -370 0 -337 1 -351 20 -370 18 -18 33
-20 170 -20 143 0 150 1 150 20 0 18 -8 20 -147 22 l-148 3 0 345 0 345 215 0
215 0 3 -77 c3 -70 5 -78 22 -78 18 0 20 7 20 80 0 124 8 120 -260 120 -207 0
-221 -1 -240 -20z"/>
<path d="M145 908 c-3 -8 -4 -132 -3 -278 l3 -265 128 -3 c122 -2 127 -2 127
18 0 19 -6 20 -110 20 l-110 0 0 240 0 240 140 0 140 0 0 -40 c0 -34 3 -40 20
-40 19 0 21 5 18 58 l-3 57 -173 3 c-133 2 -174 0 -177 -10z"/>
<path d="M440 760 c-19 -19 -20 -33 -20 -370 0 -337 1 -351 20 -370 19 -19 33
-20 240 -20 207 0 221 1 240 20 19 19 20 33 20 370 0 337 -1 351 -20 370 -19
19 -33 20 -240 20 -207 0 -221 -1 -240 -20z m455 -370 l0 -345 -215 0 -215 0
-3 335 c-1 184 0 341 3 348 3 10 52 12 217 10 l213 -3 0 -345z"/>
<path d="M505 688 c-3 -8 -4 -132 -3 -278 l3 -265 175 0 175 0 0 275 0 275
-173 3 c-133 2 -174 0 -177 -10z m315 -268 l0 -240 -140 0 -140 0 0 240 0 240
140 0 140 0 0 -240z"/>
<path d="M654 106 c-10 -26 4 -48 28 -44 17 2 23 10 23 28 0 18 -6 26 -23 28
-13 2 -25 -3 -28 -12z"/>
<path d="M294 326 c-10 -26 4 -48 28 -44 33 4 33 52 0 56 -13 2 -25 -3 -28
-12z"/>
</g>
</svg>
