<svg width="400" height="405" viewBox="0 0 400 405" fill="none" xmlns="http://www.w3.org/2000/svg">
<g clip-path="url(#clip0_26_87)">
<path d="M244.267 228.782H282.291C296.614 228.806 310.553 233.418 322.063 241.942C333.572 250.467 342.048 262.455 346.247 276.148L366.787 343.138C367.525 345.531 367.691 348.063 367.272 350.532C366.853 353 365.86 355.336 364.374 357.351C362.888 359.366 360.949 361.004 358.715 362.133C356.48 363.262 354.012 363.852 351.508 363.853H174.92C172.416 363.852 169.947 363.262 167.713 362.133C165.478 361.004 163.54 359.366 162.053 357.351C160.567 355.336 159.575 353 159.155 350.532C158.736 348.063 158.902 345.531 159.64 343.138L180.18 276.148C184.386 262.433 192.881 250.43 204.418 241.903C215.954 233.377 229.922 228.778 244.267 228.782Z" fill="#68E1FD"/>
<path d="M351.573 366.036H174.985C172.134 366.044 169.321 365.383 166.772 364.105C164.224 362.828 162.011 360.97 160.312 358.68C158.613 356.391 157.475 353.734 156.991 350.925C156.506 348.115 156.689 345.231 157.523 342.505L178.172 275.515C182.462 261.329 191.216 248.906 203.132 240.092C215.048 231.279 229.49 226.547 244.311 226.599H282.291C297.112 226.547 311.554 231.279 323.47 240.092C335.386 248.906 344.14 261.329 348.43 275.515L368.97 342.505C369.804 345.231 369.986 348.115 369.502 350.925C369.017 353.734 367.88 356.391 366.181 358.68C364.482 360.97 362.269 362.828 359.72 364.105C357.172 365.383 354.359 366.044 351.508 366.036H351.573ZM244.267 230.964C230.379 230.916 216.847 235.35 205.682 243.609C194.517 251.868 186.316 263.509 182.297 276.803L161.757 343.793C161.127 345.862 160.99 348.05 161.357 350.182C161.724 352.313 162.584 354.33 163.87 356.069C165.155 357.809 166.83 359.223 168.76 360.2C170.69 361.176 172.822 361.687 174.985 361.692H351.573C353.736 361.687 355.868 361.176 357.798 360.2C359.728 359.223 361.403 357.809 362.689 356.069C363.974 354.33 364.835 352.313 365.201 350.182C365.568 348.05 365.431 345.862 364.801 343.793L344.261 276.803C340.243 263.509 332.041 251.868 320.876 243.609C309.711 235.35 296.179 230.916 282.291 230.964H244.267Z" fill="#093F68"/>
<path d="M251.667 221.229H274.892V234.588C274.892 235.884 274.637 237.167 274.141 238.364C273.645 239.561 272.918 240.648 272.002 241.564C271.086 242.481 269.998 243.207 268.801 243.703C267.604 244.199 266.321 244.454 265.026 244.454H261.511C258.895 244.454 256.385 243.415 254.535 241.564C252.684 239.714 251.645 237.205 251.645 234.588V221.229H251.667Z" fill="#FFC9B0"/>
<path d="M265.025 246.615H261.533C258.341 246.615 255.28 245.349 253.021 243.094C250.762 240.839 249.49 237.78 249.484 234.588V221.229C249.484 220.65 249.714 220.095 250.123 219.686C250.533 219.276 251.088 219.046 251.667 219.046H274.892C275.471 219.046 276.026 219.276 276.435 219.686C276.844 220.095 277.074 220.65 277.074 221.229V234.588C277.069 237.78 275.797 240.839 273.538 243.094C271.279 245.349 268.217 246.615 265.025 246.615ZM253.849 223.412V234.588C253.855 236.622 254.667 238.571 256.108 240.007C257.548 241.443 259.499 242.25 261.533 242.25H265.025C267.059 242.25 269.01 241.443 270.451 240.007C271.891 238.571 272.703 236.622 272.709 234.588V223.412H253.849Z" fill="#093F68"/>
<path d="M183.127 156.815C172.344 152.733 172.999 144.482 171.383 133.917C169.766 123.45 168.767 112.896 168.393 102.31C167.978 90.2833 168.393 77.9286 172.977 66.7746C178.849 52.4336 190.439 43.1785 205.915 44.4446C205.457 23.3151 218.139 3.49531 240.6 2.29477C276.594 0.373915 297.353 39.0312 317.456 36.1499C337.56 33.2686 342.951 24.3192 342.951 24.3192C346.329 30.7839 347.717 38.1042 346.94 45.3567C346.163 52.6093 343.256 59.4694 338.586 65.072C338.586 65.072 354.455 60.4444 356.375 81.5521C358.296 102.66 345.658 158.758 345.658 158.758L331.317 156.313C325.271 155.243 317.718 156.728 311.672 156.924L266.684 158.321C244.114 158.954 207.618 166.07 183.127 156.815Z" fill="#725858"/>
<path d="M215.563 163.691C203.733 163.691 192.098 162.534 182.341 158.845C171.886 154.872 170.925 147.32 169.812 138.567C169.637 137.112 169.441 135.656 169.223 134.201C167.596 123.646 166.59 113.005 166.21 102.332C165.817 91.0473 166.079 77.8632 170.969 65.9233C177.19 50.6437 188.802 42.109 203.056 42.109H203.733C204.213 21.7872 216.677 1.33435 240.491 0.0683315C261.424 -1.02307 277.598 11.1788 290.521 20.9795C300.518 28.5538 309.162 35.0804 317.129 33.9453C335.792 31.2823 341.14 23.2278 341.14 23.1405C341.338 22.8227 341.615 22.5615 341.944 22.3818C342.273 22.2021 342.642 22.1101 343.017 22.1146C343.396 22.1146 343.768 22.2133 344.097 22.4008C344.426 22.5883 344.701 22.8583 344.894 23.1841C345.003 23.3806 355.939 42.6547 343.235 62.4745C345.946 62.597 348.573 63.4574 350.831 64.9629C355.197 68.0188 357.925 73.5194 358.624 81.3557C360.566 102.572 348.408 156.924 347.884 159.238C347.759 159.784 347.428 160.26 346.961 160.569C346.494 160.878 345.926 160.995 345.374 160.897L330.968 158.496C326.706 158.022 322.402 158.081 318.155 158.67C315.972 158.889 313.789 159.085 311.606 159.15L266.619 160.547C261.009 160.722 254.417 161.311 247.454 161.923C237.61 162.708 226.499 163.691 215.563 163.691ZM183.891 154.763C201.746 161.53 226.914 159.281 247.192 157.47C254.221 156.837 260.878 156.247 266.619 156.073L311.606 154.676C313.505 154.676 315.579 154.414 317.762 154.217C322.394 153.575 327.089 153.531 331.732 154.086C332.496 154.086 334.984 154.632 344.065 156.269C346.247 146.054 355.939 100.062 354.28 81.7704C353.691 75.222 351.726 70.8564 348.408 68.6736C347.06 67.8384 345.558 67.2808 343.992 67.0334C342.425 66.786 340.824 66.8539 339.284 67.233C338.838 67.361 338.362 67.3433 337.926 67.1823C337.49 67.0214 337.117 66.7256 336.861 66.338C336.607 65.9504 336.482 65.4919 336.506 65.0288C336.529 64.5656 336.7 64.1221 336.992 63.7623C341.083 58.9318 343.758 53.0639 344.721 46.8077C345.684 40.5515 344.898 34.1509 342.449 28.3137C339.11 31.4569 331.841 36.3682 317.805 38.3764C308.027 39.7516 298.706 32.723 287.923 24.5811C274.826 14.6931 260.092 3.51716 240.775 4.54307C218.816 5.69995 207.727 25.5197 208.142 44.4664C208.147 44.773 208.087 45.0773 207.967 45.3594C207.847 45.6415 207.668 45.895 207.443 46.1035C207.22 46.3144 206.955 46.4759 206.666 46.5774C206.376 46.679 206.068 46.7183 205.763 46.6929C192.142 45.5578 180.944 53.2412 175.051 67.6695C170.489 78.8673 170.249 91.462 170.685 102.289C171.053 112.786 172.037 123.252 173.632 133.634C173.872 135.183 174.068 136.646 174.243 137.999C175.291 146.25 175.989 151.707 184 154.741L183.891 154.763Z" fill="#093F68"/>
<path d="M196.922 180.345C209.375 180.345 219.471 171.648 219.471 160.919C219.471 150.189 209.375 141.492 196.922 141.492C184.469 141.492 174.374 150.189 174.374 160.919C174.374 171.648 184.469 180.345 196.922 180.345Z" fill="#FFC9B0"/>
<path d="M196.922 182.506C183.28 182.506 172.191 172.815 172.191 160.897C172.191 148.979 183.28 139.265 196.922 139.265C210.565 139.265 221.675 148.979 221.675 160.897C221.675 172.815 210.565 182.506 196.922 182.506ZM196.922 143.631C185.703 143.631 176.557 151.38 176.557 160.897C176.557 170.414 185.703 178.141 196.922 178.141C208.142 178.141 217.31 170.414 217.31 160.897C217.31 151.38 208.164 143.653 196.922 143.653V143.631Z" fill="#093F68"/>
<path d="M328.436 180.345C340.889 180.345 350.984 171.648 350.984 160.919C350.984 150.189 340.889 141.492 328.436 141.492C315.983 141.492 305.887 150.189 305.887 160.919C305.887 171.648 315.983 180.345 328.436 180.345Z" fill="#FFC9B0"/>
<path d="M328.436 182.506C314.793 182.506 303.683 172.815 303.683 160.897C303.683 148.979 314.793 139.265 328.436 139.265C342.078 139.265 353.167 148.979 353.167 160.897C353.167 172.815 342.078 182.506 328.436 182.506ZM328.436 143.631C317.194 143.631 308.048 151.38 308.048 160.897C308.048 170.414 317.194 178.141 328.436 178.141C339.677 178.141 348.801 170.414 348.801 160.897C348.801 151.38 339.699 143.653 328.436 143.653V143.631Z" fill="#093F68"/>
<path d="M263.301 224.263C245.268 224.269 227.97 217.115 215.208 204.374C202.446 191.633 195.265 174.346 195.241 156.313V106.851C199.214 113.399 212.42 110.78 231.781 77.5794C304.25 114.294 331.317 93.2519 331.317 93.2519V156.313C331.294 174.339 324.118 191.619 311.366 204.359C298.614 217.099 281.327 224.258 263.301 224.263Z" fill="#FFC9B0"/>
<path d="M263.301 226.446C244.694 226.435 226.851 219.045 213.683 205.898C200.516 192.752 193.099 174.92 193.059 156.313V106.851C193.054 106.371 193.208 105.902 193.496 105.518C193.784 105.135 194.191 104.856 194.654 104.727C195.116 104.598 195.608 104.625 196.054 104.803C196.499 104.982 196.874 105.303 197.119 105.716C197.453 106.297 197.942 106.774 198.532 107.094C199.122 107.414 199.789 107.564 200.458 107.527C203.121 107.527 213.119 105.192 229.861 76.4662C230.13 75.971 230.58 75.599 231.117 75.4281C231.654 75.2573 232.236 75.3007 232.742 75.5494C302.766 111.02 329.702 91.6366 329.964 91.4402C330.288 91.1906 330.676 91.0372 331.083 90.9973C331.49 90.9575 331.9 91.0329 332.266 91.215C332.633 91.3971 332.941 91.6784 333.155 92.027C333.369 92.3756 333.481 92.7773 333.478 93.1864V156.313C333.437 174.908 326.03 192.73 312.876 205.875C299.723 219.02 281.897 226.417 263.301 226.446ZM197.446 111.369V156.313C197.446 173.779 204.384 190.529 216.735 202.879C229.085 215.23 245.835 222.168 263.301 222.168C280.767 222.168 297.517 215.23 309.868 202.879C322.218 190.529 329.156 173.779 329.156 156.313V97.0063C319.726 101.372 290.761 109.405 232.655 80.4389C220.606 100.673 209.233 111.827 200.567 111.893C199.494 111.945 198.422 111.767 197.424 111.369H197.446Z" fill="#093F68"/>
<path d="M306.957 347.788C306.378 347.788 305.823 347.558 305.413 347.148C305.004 346.739 304.774 346.184 304.774 345.605V265.758C304.774 265.179 305.004 264.624 305.413 264.215C305.823 263.805 306.378 263.576 306.957 263.576C307.536 263.576 308.091 263.805 308.5 264.215C308.91 264.624 309.14 265.179 309.14 265.758V345.605C309.14 346.184 308.91 346.739 308.5 347.148C308.091 347.558 307.536 347.788 306.957 347.788Z" fill="#093F68"/>
<path d="M219.645 347.788C219.066 347.788 218.511 347.558 218.102 347.148C217.692 346.739 217.462 346.184 217.462 345.605V265.758C217.462 265.179 217.692 264.624 218.102 264.215C218.511 263.805 219.066 263.576 219.645 263.576C220.224 263.576 220.779 263.805 221.189 264.215C221.598 264.624 221.828 265.179 221.828 265.758V345.605C221.828 346.184 221.598 346.739 221.189 347.148C220.779 347.558 220.224 347.788 219.645 347.788Z" fill="#093F68"/>
<path d="M263.127 168.733C260.838 168.717 258.554 168.527 256.294 168.165C255.716 168.064 255.201 167.737 254.863 167.256C254.525 166.775 254.392 166.18 254.494 165.601C254.595 165.022 254.922 164.507 255.403 164.169C255.884 163.831 256.48 163.698 257.058 163.8C260.493 164.34 263.992 164.34 267.427 163.8C267.863 161.792 265.244 154.305 261.533 147.254C261.405 146.994 261.33 146.711 261.312 146.421C261.295 146.132 261.335 145.842 261.431 145.568C261.527 145.294 261.677 145.042 261.871 144.827C262.065 144.611 262.301 144.437 262.563 144.314C262.826 144.19 263.11 144.121 263.4 144.109C263.69 144.097 263.979 144.142 264.251 144.243C264.523 144.344 264.772 144.499 264.984 144.697C265.196 144.895 265.366 145.134 265.484 145.399C267.929 150.092 273.408 161.486 271.399 165.961C271.175 166.495 270.829 166.971 270.39 167.349C269.95 167.728 269.429 168 268.867 168.144C266.985 168.576 265.057 168.774 263.127 168.733Z" fill="#093F68"/>
<path d="M248.021 116.433H214.668C213.51 116.433 212.4 115.973 211.581 115.154C210.763 114.336 210.303 113.225 210.303 112.068C210.303 110.91 210.763 109.799 211.581 108.981C212.4 108.162 213.51 107.702 214.668 107.702H248.043C249.201 107.702 250.311 108.162 251.13 108.981C251.949 109.799 252.409 110.91 252.409 112.068C252.409 113.225 251.949 114.336 251.13 115.154C250.311 115.973 249.201 116.433 248.043 116.433H248.021Z" fill="#093F68"/>
<path d="M309.685 116.433H276.332C275.174 116.433 274.064 115.973 273.245 115.154C272.427 114.336 271.967 113.225 271.967 112.068C271.967 110.91 272.427 109.799 273.245 108.981C274.064 108.162 275.174 107.702 276.332 107.702H309.685C310.843 107.702 311.954 108.162 312.772 108.981C313.591 109.799 314.051 110.91 314.051 112.068C314.051 113.225 313.591 114.336 312.772 115.154C311.954 115.973 310.843 116.433 309.685 116.433Z" fill="#093F68"/>
<path d="M211.765 128.395H251.056C252.538 128.395 253.959 128.984 255.007 130.032C256.055 131.079 256.644 132.501 256.644 133.983V137.628C256.644 142.624 254.659 147.416 251.126 150.948C247.593 154.481 242.802 156.466 237.806 156.466H224.993C219.997 156.466 215.206 154.481 211.673 150.948C208.14 147.416 206.156 142.624 206.156 137.628V133.983C206.156 133.247 206.301 132.519 206.583 131.839C206.865 131.16 207.279 130.543 207.8 130.024C208.321 129.505 208.94 129.093 209.62 128.814C210.301 128.534 211.03 128.392 211.765 128.395Z" fill="white"/>
<path d="M237.828 158.67H225.037C219.463 158.665 214.12 156.448 210.179 152.507C206.239 148.566 204.022 143.223 204.016 137.65V133.983C204.016 131.926 204.832 129.953 206.285 128.496C207.737 127.039 209.708 126.218 211.765 126.212H251.055C253.115 126.218 255.088 127.038 256.544 128.495C258 129.951 258.82 131.924 258.826 133.983V137.65C258.82 143.219 256.607 148.559 252.671 152.5C248.735 156.44 243.397 158.659 237.828 158.67ZM211.765 130.578C211.319 130.578 210.877 130.666 210.465 130.837C210.053 131.009 209.68 131.26 209.365 131.576C209.051 131.893 208.802 132.268 208.633 132.681C208.464 133.094 208.379 133.537 208.382 133.983V137.65C208.388 142.065 210.144 146.298 213.266 149.42C216.388 152.542 220.621 154.299 225.037 154.305H237.828C242.245 154.299 246.48 152.543 249.606 149.422C252.731 146.3 254.493 142.067 254.504 137.65V133.983C254.504 133.08 254.146 132.214 253.507 131.575C252.868 130.936 252.002 130.578 251.099 130.578H211.765Z" fill="#093F68"/>
<path d="M275.197 128.395H314.487C315.97 128.395 317.391 128.984 318.439 130.032C319.487 131.079 320.075 132.501 320.075 133.983V137.628C320.075 142.624 318.091 147.416 314.558 150.948C311.025 154.481 306.234 156.466 301.238 156.466H288.425C283.429 156.466 278.637 154.481 275.105 150.948C271.572 147.416 269.587 142.624 269.587 137.628V133.983C269.587 133.247 269.733 132.519 270.015 131.839C270.297 131.16 270.711 130.543 271.232 130.024C271.753 129.505 272.372 129.093 273.052 128.814C273.733 128.534 274.462 128.392 275.197 128.395Z" fill="white"/>
<path d="M301.26 158.67H288.469C282.892 158.67 277.543 156.456 273.597 152.515C269.652 148.573 267.432 143.227 267.427 137.65V133.983C267.432 131.924 268.253 129.951 269.709 128.495C271.165 127.038 273.138 126.218 275.197 126.212H314.488C316.545 126.218 318.516 127.039 319.968 128.496C321.421 129.953 322.237 131.926 322.237 133.983V137.65C322.231 143.216 320.02 148.552 316.089 152.492C312.158 156.431 306.826 158.653 301.26 158.67ZM275.197 130.578C274.294 130.578 273.428 130.936 272.79 131.575C272.151 132.214 271.792 133.08 271.792 133.983V137.65C271.804 142.067 273.565 146.3 276.691 149.422C279.816 152.543 284.051 154.299 288.469 154.305H301.26C305.675 154.299 309.908 152.542 313.03 149.42C316.152 146.298 317.909 142.065 317.915 137.65V133.983C317.918 133.537 317.832 133.094 317.663 132.681C317.495 132.268 317.246 131.893 316.931 131.576C316.617 131.26 316.243 131.009 315.831 130.837C315.419 130.666 314.978 130.578 314.531 130.578H275.197Z" fill="#093F68"/>
<path d="M206.199 139.833H193.452C192.873 139.833 192.317 139.603 191.908 139.193C191.499 138.784 191.269 138.229 191.269 137.65C191.269 137.071 191.499 136.516 191.908 136.106C192.317 135.697 192.873 135.467 193.452 135.467H206.134C206.713 135.467 207.268 135.697 207.677 136.106C208.086 136.516 208.316 137.071 208.316 137.65C208.316 138.229 208.086 138.784 207.677 139.193C207.268 139.603 206.713 139.833 206.134 139.833H206.199Z" fill="#093F68"/>
<path d="M333.412 139.833H320.752C320.173 139.833 319.618 139.603 319.209 139.193C318.799 138.784 318.569 138.229 318.569 137.65C318.569 137.071 318.799 136.516 319.209 136.106C319.618 135.697 320.173 135.467 320.752 135.467H333.412C333.991 135.467 334.547 135.697 334.956 136.106C335.365 136.516 335.595 137.071 335.595 137.65C335.595 138.229 335.365 138.784 334.956 139.193C334.547 139.603 333.991 139.833 333.412 139.833Z" fill="#093F68"/>
<path d="M269.609 139.833H256.753C256.174 139.833 255.619 139.603 255.209 139.193C254.8 138.784 254.57 138.229 254.57 137.65C254.57 137.071 254.8 136.516 255.209 136.106C255.619 135.697 256.174 135.467 256.753 135.467H269.675C270.254 135.467 270.809 135.697 271.218 136.106C271.628 136.516 271.858 137.071 271.858 137.65C271.858 138.229 271.628 138.784 271.218 139.193C270.809 139.603 270.254 139.833 269.675 139.833H269.609Z" fill="#093F68"/>
<path d="M261.839 189.775C254.05 189.806 246.323 188.392 239.05 185.606C238.509 185.398 238.073 184.983 237.837 184.453C237.602 183.923 237.587 183.321 237.795 182.779C238.004 182.238 238.418 181.802 238.949 181.566C239.479 181.331 240.081 181.316 240.622 181.524C254.57 186.536 269.828 186.536 283.776 181.524C284.041 181.414 284.325 181.357 284.612 181.356C284.9 181.356 285.184 181.412 285.45 181.521C285.715 181.631 285.956 181.791 286.16 181.994C286.363 182.197 286.525 182.438 286.635 182.703C286.746 182.968 286.803 183.252 286.803 183.54C286.804 183.827 286.747 184.111 286.638 184.377C286.529 184.642 286.368 184.884 286.165 185.087C285.962 185.291 285.722 185.452 285.456 185.562C277.903 188.382 269.901 189.81 261.839 189.775Z" fill="#093F68"/>
<path d="M323.132 329.452C322.621 329.463 322.123 329.293 321.724 328.974C321.325 328.655 321.051 328.206 320.949 327.706C320.891 327.425 320.89 327.136 320.944 326.854C320.999 326.573 321.108 326.305 321.266 326.065C321.425 325.826 321.628 325.621 321.866 325.46C322.103 325.3 322.37 325.188 322.651 325.13L346.793 320.197C347.372 320.081 347.973 320.2 348.464 320.528C348.956 320.855 349.297 321.364 349.412 321.943C349.528 322.522 349.409 323.123 349.082 323.615C348.754 324.106 348.245 324.447 347.666 324.563L323.524 329.474C323.393 329.485 323.261 329.478 323.132 329.452Z" fill="#093F68"/>
<path d="M203.427 329.452C203.282 329.475 203.135 329.475 202.991 329.452L178.849 324.388C178.562 324.331 178.29 324.218 178.047 324.055C177.804 323.892 177.595 323.683 177.433 323.44C177.271 323.197 177.158 322.924 177.102 322.637C177.045 322.351 177.045 322.055 177.103 321.769C177.16 321.482 177.273 321.21 177.436 320.967C177.598 320.724 177.807 320.515 178.051 320.353C178.294 320.191 178.567 320.078 178.853 320.022C179.14 319.965 179.435 319.965 179.722 320.023L203.864 324.956C204.145 325.013 204.411 325.125 204.649 325.285C204.887 325.446 205.09 325.652 205.249 325.891C205.407 326.13 205.516 326.398 205.571 326.679C205.625 326.961 205.624 327.25 205.566 327.531C205.503 328.056 205.251 328.54 204.858 328.894C204.464 329.247 203.956 329.445 203.427 329.452Z" fill="#093F68"/>
<path d="M201.659 283.701H324.638C327.405 283.701 330.059 284.8 332.015 286.757C333.972 288.714 335.071 291.367 335.071 294.135V365.861H191.269V294.135C191.269 291.375 192.362 288.728 194.309 286.772C196.257 284.817 198.899 283.712 201.659 283.701Z" fill="#BDB7B7"/>
<path d="M335.071 368.044H191.269C190.69 368.044 190.135 367.814 189.725 367.405C189.316 366.995 189.086 366.44 189.086 365.861V294.134C189.086 290.788 190.415 287.579 192.781 285.213C195.147 282.847 198.356 281.518 201.703 281.518H324.638C327.984 281.518 331.193 282.847 333.559 285.213C335.925 287.579 337.254 290.788 337.254 294.134V365.861C337.254 366.44 337.024 366.995 336.615 367.405C336.206 367.814 335.65 368.044 335.071 368.044ZM193.452 363.678H332.932V294.134C332.927 291.948 332.055 289.853 330.509 288.306C328.963 286.76 326.868 285.889 324.681 285.883H201.659C199.472 285.889 197.377 286.76 195.831 288.306C194.285 289.853 193.414 291.948 193.408 294.134L193.452 363.678Z" fill="#093F68"/>
<path d="M184.24 365.861H342.078C342.078 368.652 340.97 371.328 338.997 373.301C337.024 375.274 334.347 376.383 331.557 376.383H194.761C191.971 376.383 189.295 375.274 187.322 373.301C185.349 371.328 184.24 368.652 184.24 365.861Z" fill="#BDB7B7"/>
<path d="M331.535 378.609H194.761C191.394 378.603 188.166 377.263 185.785 374.881C183.403 372.5 182.063 369.272 182.057 365.905C182.057 365.326 182.287 364.771 182.697 364.361C183.106 363.952 183.661 363.722 184.24 363.722H342.056C342.635 363.722 343.19 363.952 343.6 364.361C344.009 364.771 344.239 365.326 344.239 365.905C344.233 369.272 342.893 372.5 340.512 374.881C338.131 377.263 334.903 378.603 331.535 378.609ZM186.707 368.044C187.19 369.811 188.239 371.37 189.695 372.482C191.15 373.594 192.93 374.197 194.761 374.2H331.535C333.385 374.221 335.19 373.629 336.668 372.515C338.145 371.401 339.211 369.829 339.699 368.044H186.707Z" fill="#093F68"/>
<path d="M261.533 285.884C260.954 285.884 260.399 285.654 259.99 285.244C259.58 284.835 259.35 284.28 259.35 283.701V244.41C259.35 243.832 259.58 243.276 259.99 242.867C260.399 242.458 260.954 242.228 261.533 242.228C262.112 242.228 262.667 242.458 263.077 242.867C263.486 243.276 263.716 243.832 263.716 244.41V283.701C263.716 284.28 263.486 284.835 263.077 285.244C262.667 285.654 262.112 285.884 261.533 285.884Z" fill="#093F68"/>
<path d="M54.5385 313.278H115.657V356.366C115.657 361.686 113.543 366.789 109.781 370.551C106.019 374.313 100.917 376.426 95.5968 376.426H74.5983C69.2781 376.426 64.1758 374.313 60.4138 370.551C56.6519 366.789 54.5385 361.686 54.5385 356.366V313.278Z" fill="#BDB7B7"/>
<path d="M95.5969 378.609H74.5984C68.7011 378.603 63.0469 376.258 58.8768 372.088C54.7068 367.918 52.3615 362.263 52.3557 356.366V313.278C52.3557 312.699 52.5857 312.144 52.995 311.734C53.4044 311.325 53.9596 311.095 54.5385 311.095H115.657C116.236 311.095 116.791 311.325 117.2 311.734C117.61 312.144 117.84 312.699 117.84 313.278V356.366C117.834 362.263 115.489 367.918 111.318 372.088C107.148 376.258 101.494 378.603 95.5969 378.609ZM56.7213 315.461V356.366C56.7213 361.107 58.6048 365.655 61.9574 369.007C65.31 372.36 69.8571 374.243 74.5984 374.243H95.5969C100.336 374.237 104.88 372.352 108.232 369.001C111.583 365.649 113.468 361.106 113.474 356.366V315.461H56.7213Z" fill="#093F68"/>
<path d="M382.503 376.426H17.4965C10.408 376.426 4.66162 382.167 4.66162 389.25C4.66162 396.332 10.408 402.074 17.4965 402.074H382.503C389.592 402.074 395.338 396.332 395.338 389.25C395.338 382.167 389.592 376.426 382.503 376.426Z" fill="#888383"/>
<path d="M382.504 404.257H17.4966C15.4777 404.334 13.464 404.002 11.5762 403.283C9.68828 402.564 7.96498 401.471 6.50941 400.069C5.05385 398.668 3.89596 396.988 3.10506 395.129C2.31415 393.27 1.90649 391.27 1.90649 389.25C1.90649 387.23 2.31415 385.23 3.10506 383.371C3.89596 381.512 5.05385 379.831 6.50941 378.43C7.96498 377.029 9.68828 375.936 11.5762 375.217C13.464 374.497 15.4777 374.166 17.4966 374.243H382.504C384.523 374.166 386.536 374.497 388.424 375.217C390.312 375.936 392.035 377.029 393.491 378.43C394.946 379.831 396.104 381.512 396.895 383.371C397.686 385.23 398.094 387.23 398.094 389.25C398.094 391.27 397.686 393.27 396.895 395.129C396.104 396.988 394.946 398.668 393.491 400.069C392.035 401.471 390.312 402.564 388.424 403.283C386.536 404.002 384.523 404.334 382.504 404.257ZM17.4966 378.609C16.0586 378.544 14.6224 378.771 13.2746 379.276C11.9268 379.781 10.6954 380.555 9.65478 381.549C8.61417 382.544 7.78593 383.739 7.22006 385.062C6.6542 386.386 6.36245 387.81 6.36245 389.25C6.36245 390.689 6.6542 392.114 7.22006 393.437C7.78593 394.761 8.61417 395.956 9.65478 396.951C10.6954 397.945 11.9268 398.718 13.2746 399.224C14.6224 399.729 16.0586 399.956 17.4966 399.891H382.504C383.942 399.956 385.378 399.729 386.726 399.224C388.073 398.718 389.305 397.945 390.345 396.951C391.386 395.956 392.214 394.761 392.78 393.437C393.346 392.114 393.638 390.689 393.638 389.25C393.638 387.81 393.346 386.386 392.78 385.062C392.214 383.739 391.386 382.544 390.345 381.549C389.305 380.555 388.073 379.781 386.726 379.276C385.378 378.771 383.942 378.544 382.504 378.609H17.4966Z" fill="#093F68"/>
<path d="M119.237 357.13H115.679C115.1 357.13 114.545 356.9 114.135 356.491C113.726 356.081 113.496 355.526 113.496 354.947V320.306C113.496 319.727 113.726 319.172 114.135 318.763C114.545 318.353 115.1 318.123 115.679 318.123H119.237C121.995 317.79 124.793 318.046 127.446 318.873C130.099 319.701 132.545 321.082 134.625 322.926C136.704 324.769 138.369 327.032 139.509 329.567C140.649 332.101 141.239 334.848 141.239 337.627C141.239 340.405 140.649 343.153 139.509 345.687C138.369 348.221 136.704 350.484 134.625 352.327C132.545 354.171 130.099 355.552 127.446 356.38C124.793 357.208 121.995 357.463 119.237 357.13ZM117.861 352.764H119.237C121.375 353.008 123.541 352.797 125.593 352.145C127.644 351.494 129.535 350.416 131.141 348.982C132.747 347.549 134.032 345.793 134.911 343.828C135.791 341.864 136.246 339.735 136.246 337.583C136.246 335.43 135.791 333.302 134.911 331.338C134.032 329.373 132.747 327.617 131.141 326.184C129.535 324.75 127.644 323.672 125.593 323.021C123.541 322.369 121.375 322.158 119.237 322.402H117.861V352.764Z" fill="#093F68"/>
<path d="M145.43 121.344H16.0339C13.0201 121.344 10.5769 123.788 10.5769 126.801V233.911C10.5769 236.925 13.0201 239.368 16.0339 239.368H145.43C148.444 239.368 150.887 236.925 150.887 233.911V126.801C150.887 123.788 148.444 121.344 145.43 121.344Z" fill="white"/>
<path d="M145.43 241.551H16.0122C13.9898 241.545 12.0522 240.738 10.6242 239.306C9.19618 237.874 8.39428 235.934 8.39429 233.911V126.78C8.39429 124.759 9.19688 122.822 10.6255 121.393C12.0542 119.964 13.9918 119.162 16.0122 119.162H145.43C147.453 119.162 149.392 119.964 150.825 121.392C152.257 122.82 153.064 124.757 153.07 126.78V233.911C153.07 235.937 152.265 237.881 150.832 239.313C149.4 240.746 147.456 241.551 145.43 241.551ZM16.0122 123.571C15.1497 123.571 14.3224 123.914 13.7125 124.523C13.1025 125.133 12.7599 125.961 12.7599 126.823V233.955C12.7599 234.82 13.1018 235.649 13.7111 236.262C14.3205 236.876 15.1477 237.223 16.0122 237.229H145.43C146.299 237.229 147.131 236.884 147.745 236.27C148.359 235.656 148.704 234.823 148.704 233.955V126.78C148.687 125.923 148.335 125.107 147.723 124.507C147.11 123.907 146.287 123.571 145.43 123.571H16.0122Z" fill="#093F68"/>
<path d="M16.0121 121.388H145.43C146.877 121.388 148.265 121.963 149.289 122.986C150.312 124.01 150.887 125.398 150.887 126.845V136.297H10.5769V126.845C10.5769 125.402 11.1488 124.017 12.1675 122.994C13.1862 121.971 14.5686 121.394 16.0121 121.388Z" fill="#68E1FD"/>
<path d="M150.887 138.436H10.5771C9.99817 138.436 9.44296 138.206 9.03361 137.796C8.62426 137.387 8.39429 136.832 8.39429 136.253V126.78C8.39429 124.759 9.19688 122.822 10.6255 121.393C12.0542 119.964 13.9918 119.162 16.0122 119.162H145.43C147.453 119.162 149.392 119.964 150.825 121.392C152.257 122.82 153.064 124.757 153.07 126.78V136.253C153.07 136.832 152.84 137.387 152.431 137.796C152.021 138.206 151.466 138.436 150.887 138.436ZM12.7599 134.07H148.704V126.78C148.687 125.923 148.335 125.107 147.723 124.507C147.11 123.907 146.287 123.571 145.43 123.571H16.0122C15.1497 123.571 14.3224 123.914 13.7125 124.523C13.1025 125.133 12.7599 125.961 12.7599 126.823V134.07Z" fill="#093F68"/>
<path d="M21.4691 131.713C23.0845 131.713 24.3941 130.403 24.3941 128.788C24.3941 127.172 23.0845 125.863 21.4691 125.863C19.8537 125.863 18.5442 127.172 18.5442 128.788C18.5442 130.403 19.8537 131.713 21.4691 131.713Z" fill="#093F68"/>
<path d="M29.6547 131.713C31.2701 131.713 32.5796 130.403 32.5796 128.788C32.5796 127.172 31.2701 125.863 29.6547 125.863C28.0393 125.863 26.7297 127.172 26.7297 128.788C26.7297 130.403 28.0393 131.713 29.6547 131.713Z" fill="#093F68"/>
<path d="M37.862 131.713C39.4774 131.713 40.7869 130.403 40.7869 128.788C40.7869 127.172 39.4774 125.863 37.862 125.863C36.2466 125.863 34.937 127.172 34.937 128.788C34.937 130.403 36.2466 131.713 37.862 131.713Z" fill="#093F68"/>
<path d="M62.6803 177.377L42.4895 186.588V186.741L62.6803 195.952V206.037L30.4404 191.347V181.982L62.6803 167.227V177.377Z" fill="#093F68"/>
<path d="M86.6256 152.668L93.8725 155.265L74.7731 213.066L67.5698 210.468L86.6256 152.668Z" fill="#093F68"/>
<path d="M98.7837 195.952L118.975 186.741V186.588L98.7837 177.377V167.227L131.002 181.917V191.281L98.7837 205.971V195.952Z" fill="#093F68"/>
</g>
<defs>
<clipPath id="clip0_26_87">
<rect width="400" height="404.302" fill="white"/>
</clipPath>
</defs>
</svg>
